# Blender v2.72 (sub 0) OBJ File: 'spinningTop1_2.blend'
# www.blender.org
o Cone
v 0.000000 0.156779 1.000000
v 0.195090 0.156779 0.980785
v 0.382683 0.156779 0.923880
v 0.555570 0.156779 0.831470
v 0.707107 0.156779 0.707107
v 0.831470 0.156779 0.555570
v 0.923880 0.156779 0.382683
v 0.980785 0.156779 0.195090
v 1.000000 0.156779 0.000000
v 0.980785 0.156779 -0.195090
v 0.923880 0.156779 -0.382683
v 0.831470 0.156779 -0.555570
v 0.707107 0.156779 -0.707107
v 0.555570 0.156779 -0.831470
v 0.382683 0.156779 -0.923880
v 0.195090 0.156779 -0.980785
v -0.000000 0.156779 -1.000000
v -0.195091 0.156779 -0.980785
v -0.382684 0.156779 -0.923879
v -0.555571 0.156779 -0.831469
v -0.707107 0.156779 -0.707106
v -0.831470 0.156779 -0.555570
v -0.923880 0.156779 -0.382683
v 0.000000 -0.843221 -0.000000
v -0.980785 0.156779 -0.195089
v -1.000000 0.156779 0.000001
v -0.980785 0.156779 0.195091
v -0.923879 0.156779 0.382684
v -0.831469 0.156779 0.555571
v -0.707106 0.156779 0.707108
v -0.555569 0.156779 0.831470
v -0.382682 0.156779 0.923880
v -0.195089 0.156779 0.980786
v 0.000000 0.156779 0.100000
v 0.019509 0.156779 0.098079
v 0.038268 0.156779 0.092388
v 0.055557 0.156779 0.083147
v 0.070711 0.156779 0.070711
v 0.083147 0.156779 0.055557
v 0.092388 0.156779 0.038269
v 0.098079 0.156779 0.019509
v 0.100000 0.156779 0.000000
v 0.098079 0.156779 -0.019509
v 0.092388 0.156779 -0.038268
v 0.083147 0.156779 -0.055557
v 0.070711 0.156779 -0.070710
v 0.055557 0.156779 -0.083147
v 0.038268 0.156779 -0.092388
v 0.019509 0.156779 -0.098078
v 0.000000 0.156779 -0.100000
v -0.019509 0.156779 -0.098078
v -0.038268 0.156779 -0.092388
v -0.055557 0.156779 -0.083147
v -0.070711 0.156779 -0.070710
v -0.083147 0.156779 -0.055557
v -0.092388 0.156779 -0.038268
v -0.098078 0.156779 -0.019509
v -0.100000 0.156779 0.000000
v -0.098078 0.156779 0.019509
v -0.092388 0.156779 0.038269
v -0.083147 0.156779 0.055557
v -0.070710 0.156779 0.070711
v -0.055557 0.156779 0.083147
v -0.038268 0.156779 0.092388
v -0.019509 0.156779 0.098079
v 0.000000 0.936779 0.100000
v 0.019509 0.936779 0.098079
v 0.038268 0.936779 0.092388
v 0.055557 0.936779 0.083147
v 0.070711 0.936779 0.070711
v 0.083147 0.936779 0.055557
v 0.092388 0.936779 0.038269
v 0.098079 0.936779 0.019509
v 0.100000 0.936779 0.000000
v 0.098079 0.936779 -0.019509
v 0.092388 0.936779 -0.038268
v 0.083147 0.936779 -0.055557
v 0.070711 0.936779 -0.070710
v 0.055557 0.936779 -0.083147
v 0.038268 0.936779 -0.092388
v 0.019509 0.936779 -0.098078
v 0.000000 0.936779 -0.100000
v -0.019509 0.936779 -0.098078
v -0.038268 0.936779 -0.092388
v -0.055557 0.936779 -0.083147
v -0.070711 0.936779 -0.070710
v -0.083147 0.936779 -0.055557
v -0.092388 0.936779 -0.038268
v -0.098078 0.936779 -0.019509
v -0.100000 0.936779 0.000000
v -0.098078 0.936779 0.019509
v -0.092388 0.936779 0.038269
v -0.083147 0.936779 0.055557
v -0.070710 0.936779 0.070711
v -0.055557 0.936779 0.083147
v -0.038268 0.936779 0.092388
v -0.019509 0.936779 0.098079
vt 0.532998 0.325742
vt 0.655846 0.622324
vt 0.593219 0.307474
vt 0.655846 0.301306
vt 0.718473 0.307474
vt 0.477499 0.355407
vt 0.428853 0.395330
vt 0.388930 0.443976
vt 0.359265 0.499475
vt 0.340997 0.559696
vt 0.334829 0.622323
vt 0.718473 0.672652
vt 0.655846 0.351635
vt 0.655845 0.672652
vt 0.359264 0.745171
vt 0.340997 0.684951
vt 0.388930 0.800671
vt 0.428852 0.849317
vt 0.477498 0.889239
vt 0.532998 0.918905
vt 0.593218 0.937172
vt 0.593218 0.672652
vt 0.778694 0.918905
vt 0.718473 0.937172
vt 0.834193 0.889239
vt 0.882839 0.849317
vt 0.922762 0.800671
vt 0.952427 0.745171
vt 0.970695 0.684951
vt 0.013811 0.622324
vt 0.328660 0.684951
vt 0.970695 0.559696
vt 0.976863 0.622323
vt 0.952427 0.499475
vt 0.922762 0.443976
vt 0.882839 0.395330
vt 0.834193 0.355407
vt 0.778694 0.325742
vt 0.643561 0.592665
vt 0.638011 0.595632
vt 0.643561 0.672652
vt 0.643561 0.923046
vt 0.638011 0.923046
vt 0.673681 0.595632
vt 0.668131 0.592665
vt 0.668131 0.651981
vt 0.673681 0.649015
vt 0.662109 0.590838
vt 0.678545 0.645023
vt 0.633147 0.599624
vt 0.682537 0.640158
vt 0.629154 0.604489
vt 0.626188 0.610039
vt 0.626188 0.634608
vt 0.685504 0.634608
vt 0.655846 0.590222
vt 0.649583 0.590838
vt 0.629154 0.640158
vt 0.633146 0.645023
vt 0.687331 0.628586
vt 0.624361 0.616061
vt 0.623744 0.622323
vt 0.638011 0.649015
vt 0.045296 0.628586
vt 0.045913 0.622323
vt 0.624361 0.628586
vt 0.643561 0.651981
vt 0.687948 0.622323
vt 0.687331 0.616061
vt 0.685504 0.610039
vt 0.593218 0.295138
vt 0.649583 0.011774
vt 0.655846 0.012391
vt 0.682537 0.604489
vt 0.678545 0.599624
vt 0.655846 0.943341
vt 0.655846 0.654425
vt 0.662109 0.653808
vt 0.638011 0.672652
vt 0.655846 0.923046
vt 0.649583 0.923046
vt 0.633146 0.672652
vt 0.633146 0.923046
vt 0.649583 0.672652
vt 0.678545 0.672652
vt 0.678545 0.923046
vt 0.673681 0.923046
vt 0.662109 0.672652
vt 0.662109 0.923046
vt 0.668131 0.923046
vt 0.668131 0.672652
vt 0.673681 0.672652
vt 0.649583 0.653808
vn -0.356500 0.363700 0.860600
vn 0.000000 -1.000000 0.000000
vn -0.181700 0.363700 0.913600
vn 0.000000 0.363700 0.931500
vn 0.181700 0.363700 0.913600
vn -0.517500 0.363700 0.774500
vn -0.658700 0.363700 0.658700
vn -0.774500 0.363700 0.517500
vn -0.860600 0.363700 0.356500
vn -0.913600 0.363700 0.181700
vn -0.931500 0.363700 0.000000
vn -0.913600 0.363700 -0.181700
vn -0.860600 0.363700 -0.356500
vn -0.774500 0.363700 -0.517500
vn -0.658700 0.363700 -0.658700
vn -0.517500 0.363700 -0.774500
vn -0.356500 0.363700 -0.860600
vn -0.181700 0.363700 -0.913600
vn 0.000000 0.363700 -0.931500
vn 0.181700 0.363700 -0.913600
vn 0.356500 0.363700 -0.860600
vn 0.517500 0.363700 -0.774500
vn 0.658700 0.363700 -0.658700
vn 0.774500 0.363700 -0.517500
vn 0.860600 0.363700 -0.356500
vn 0.913600 0.363700 -0.181700
vn 0.931500 0.363700 0.000000
vn 0.913600 0.363700 0.181700
vn 0.860600 0.363700 0.356500
vn 0.774500 0.363700 0.517500
vn 0.658700 0.363700 0.658700
vn 0.517500 0.363700 0.774500
vn 0.356500 0.363700 0.860600
vn -0.261600 0.729800 0.631600
vn -0.379800 0.729800 0.568400
vn -0.278500 0.685700 0.672400
vn -0.404400 0.685700 0.605200
vn 0.379800 0.729800 0.568400
vn 0.261600 0.729800 0.631600
vn 0.261600 0.729800 -0.631600
vn 0.379800 0.729800 -0.568400
vn 0.133300 0.729800 0.670500
vn 0.483400 0.729800 -0.483400
vn -0.483400 0.729800 0.483400
vn 0.568400 0.729800 -0.379800
vn -0.568400 0.729800 0.379800
vn -0.631600 0.729800 0.261600
vn -0.631600 0.729800 -0.261600
vn 0.631600 0.729800 -0.261600
vn 0.000000 0.729800 0.683600
vn -0.133300 0.729800 0.670500
vn -0.568400 0.729800 -0.379800
vn -0.483400 0.729800 -0.483400
vn 0.670500 0.729800 -0.133300
vn -0.670500 0.729800 0.133400
vn -0.683600 0.729800 0.000000
vn -0.379800 0.729800 -0.568400
vn 0.683600 0.729800 0.000000
vn -0.670500 0.729800 -0.133300
vn -0.261600 0.729800 -0.631600
vn 0.670500 0.729800 0.133300
vn 0.631600 0.729800 0.261600
vn -0.133400 0.729800 -0.670500
vn 0.000000 0.729800 -0.683600
vn 0.568400 0.729800 0.379800
vn 0.483400 0.729800 0.483400
vn 0.133300 0.729800 -0.670500
vn -0.278500 0.685700 -0.672500
vn 0.000000 0.685700 0.727900
vn 0.727900 0.685700 0.000000
vn -0.404400 0.685700 -0.605200
vn 0.713900 0.685700 0.142000
vn -0.514700 0.685700 0.514700
vn -0.605200 0.685700 0.404400
vn -0.142000 0.685700 -0.713900
vn 0.000000 0.685700 -0.727900
vn 0.672500 0.685700 0.278500
vn 0.605200 0.685700 0.404400
vn -0.672500 0.685700 0.278500
vn -0.713900 0.685700 0.142000
vn 0.514700 0.685700 0.514700
vn 0.404400 0.685700 0.605200
vn 0.142000 0.685700 -0.713900
vn 0.278500 0.685700 -0.672500
vn -0.727900 0.685700 0.000000
vn -0.713900 0.685700 -0.142000
vn 0.278500 0.685700 0.672500
vn 0.142000 0.685700 0.713900
vn 0.404400 0.685700 -0.605200
vn 0.514700 0.685700 -0.514700
vn -0.672500 0.685700 -0.278500
vn -0.605200 0.685700 -0.404400
vn 0.605200 0.685700 -0.404400
vn 0.672500 0.685700 -0.278500
vn -0.142000 0.685700 0.713900
vn -0.514700 0.685700 -0.514700
vn 0.713900 0.685700 -0.142000
s 1
f 32/1/1 24/2/2 33/3/3
f 1/4/4 24/2/2 2/5/5
f 31/6/6 24/2/2 32/1/1
f 30/7/7 24/2/2 31/6/6
f 29/8/8 24/2/2 30/7/7
f 28/9/9 24/2/2 29/8/8
f 27/10/10 24/2/2 28/9/9
f 26/11/11 24/2/2 27/10/10
f 25/12/12 24/13/2 26/14/11
f 23/15/13 24/2/2 25/16/12
f 22/17/14 24/2/2 23/15/13
f 21/18/15 24/2/2 22/17/14
f 20/19/16 24/2/2 21/18/15
f 19/20/17 24/2/2 20/19/16
f 18/21/18 24/2/2 19/20/17
f 17/14/19 24/13/2 18/22/18
f 16/12/20 24/13/2 17/14/19
f 15/23/21 24/2/2 16/24/20
f 14/25/22 24/2/2 15/23/21
f 13/26/23 24/2/2 14/25/22
f 12/27/24 24/2/2 13/26/23
f 11/28/25 24/2/2 12/27/24
f 10/29/26 24/2/2 11/28/25
f 9/11/27 24/30/2 10/31/26
f 8/32/28 24/2/2 9/33/27
f 7/34/29 24/2/2 8/32/28
f 6/35/30 24/2/2 7/34/29
f 5/36/31 24/2/2 6/35/30
f 4/37/32 24/2/2 5/36/31
f 3/38/33 24/2/2 4/37/32
f 33/3/3 24/2/2 1/4/4
f 2/5/5 24/2/2 3/38/33
f 32/1/1 64/39/34 63/40/35
f 64/41/34 96/42/36 95/43/37
f 4/37/32 37/44/38 36/45/39
f 15/23/21 48/46/40 47/47/41
f 30/7/7 31/6/6 63/40/35
f 3/38/33 36/45/39 35/48/42
f 14/25/22 47/47/41 46/49/43
f 29/8/8 30/7/7 62/50/44
f 13/26/23 46/49/43 45/51/45
f 29/8/8 61/52/46 60/53/47
f 22/17/14 23/15/13 56/54/48
f 12/27/24 45/51/45 44/55/49
f 1/4/4 34/56/50 65/57/51
f 27/10/10 28/9/9 60/53/47
f 22/17/14 55/58/52 54/59/53
f 11/28/25 44/55/49 43/60/54
f 27/10/10 59/61/55 58/62/56
f 21/18/15 54/59/53 53/63/57
f 10/31/26 43/64/54 42/65/58
f 26/11/11 58/62/56 57/66/59
f 20/19/16 53/63/57 52/67/60
f 9/33/27 42/68/58 41/69/61
f 25/16/12 57/66/59 56/54/48
f 18/21/18 19/20/17 52/67/60
f 8/32/28 41/69/61 40/70/62
f 18/71/18 51/72/63 50/73/64
f 2/5/5 35/48/42 34/56/50
f 6/35/30 7/34/29 40/70/62
f 6/35/30 39/74/65 38/75/66
f 17/76/19 50/77/64 49/78/67
f 33/3/3 65/57/51 64/39/34
f 5/36/31 38/75/66 37/44/38
f 16/24/20 49/78/67 48/46/40
f 84/67/68 66/56/69 74/68/70
f 53/79/57 85/43/71 84/42/68
f 42/14/58 74/80/70 73/81/72
f 62/82/44 94/83/73 93/43/74
f 51/84/63 83/81/75 82/80/76
f 40/41/62 72/42/77 71/43/78
f 60/41/47 92/42/79 91/81/80
f 38/85/66 70/86/81 69/87/82
f 49/88/67 81/89/83 80/90/84
f 58/14/56 90/80/85 89/89/86
f 36/91/39 68/90/87 67/89/88
f 47/92/41 79/87/89 78/86/90
f 56/91/48 88/90/91 87/87/92
f 45/92/45 77/87/93 76/90/94
f 65/84/51 97/81/95 96/42/36
f 54/82/53 86/83/96 85/43/71
f 43/88/54 75/89/97 74/80/70
f 63/79/35 95/43/37 94/83/73
f 52/41/60 84/42/68 83/81/75
f 41/84/61 73/81/72 72/42/77
f 61/79/46 93/43/74 92/42/79
f 39/79/65 71/43/78 70/83/81
f 50/14/64 82/80/76 81/89/83
f 59/84/55 91/81/80 90/80/85
f 37/92/38 69/87/82 68/90/87
f 48/91/40 80/90/84 79/87/89
f 57/88/59 89/89/86 88/90/91
f 35/88/42 67/89/88 66/80/69
f 46/85/43 78/86/90 77/87/93
f 34/14/50 66/80/69 97/81/95
f 55/92/52 87/87/92 86/86/96
f 44/91/49 76/90/94 75/89/97
f 31/6/6 32/1/1 63/40/35
f 63/79/35 64/41/34 95/43/37
f 3/38/33 4/37/32 36/45/39
f 14/25/22 15/23/21 47/47/41
f 62/50/44 30/7/7 63/40/35
f 2/5/5 3/38/33 35/48/42
f 13/26/23 14/25/22 46/49/43
f 61/52/46 29/8/8 62/50/44
f 12/27/24 13/26/23 45/51/45
f 28/9/9 29/8/8 60/53/47
f 55/58/52 22/17/14 56/54/48
f 11/28/25 12/27/24 44/55/49
f 33/3/3 1/4/4 65/57/51
f 59/61/55 27/10/10 60/53/47
f 21/18/15 22/17/14 54/59/53
f 10/29/26 11/28/25 43/60/54
f 26/11/11 27/10/10 58/62/56
f 20/19/16 21/18/15 53/63/57
f 9/11/27 10/31/26 42/65/58
f 25/16/12 26/11/11 57/66/59
f 19/20/17 20/19/16 52/67/60
f 8/32/28 9/33/27 41/69/61
f 23/15/13 25/16/12 56/54/48
f 51/93/63 18/21/18 52/67/60
f 7/34/29 8/32/28 40/70/62
f 17/4/19 18/71/18 50/73/64
f 1/4/4 2/5/5 34/56/50
f 39/74/65 6/35/30 40/70/62
f 5/36/31 6/35/30 38/75/66
f 16/24/20 17/76/19 49/78/67
f 32/1/1 33/3/3 64/39/34
f 4/37/32 5/36/31 37/44/38
f 15/23/21 16/24/20 48/46/40
f 66/56/69 94/50/73 97/57/95
f 94/50/73 95/40/37 96/39/36
f 92/53/79 93/52/74 94/50/73
f 90/62/85 91/61/80 92/53/79
f 90/62/85 92/53/79 89/66/86
f 88/54/91 66/56/69 87/58/92
f 86/59/96 87/58/92 85/63/71
f 82/77/76 83/93/75 84/67/68
f 87/58/92 84/67/68 85/63/71
f 78/49/90 79/47/89 80/46/84
f 78/49/90 74/68/70 77/51/93
f 74/68/70 75/60/97 76/55/94
f 72/70/77 73/69/72 74/68/70
f 70/75/81 71/74/78 72/70/77
f 68/45/87 69/44/82 70/75/81
f 66/56/69 67/48/88 68/45/87
f 41/84/61 42/14/58 73/81/72
f 94/50/73 66/56/69 92/53/79
f 66/56/69 70/75/81 72/70/77
f 94/50/73 96/39/36 97/57/95
f 81/78/83 82/77/76 84/67/68
f 66/56/69 88/54/91 92/53/79
f 74/68/70 66/56/69 72/70/77
f 66/56/69 68/45/87 70/75/81
f 52/41/60 53/79/57 84/42/68
f 78/49/90 80/46/84 81/78/83
f 78/49/90 81/78/83 84/67/68
f 66/56/69 84/67/68 87/58/92
f 84/67/68 74/68/70 78/49/90
f 92/53/79 88/54/91 89/66/86
f 74/68/70 76/55/94 77/51/93
f 61/79/46 62/82/44 93/43/74
f 50/14/64 51/84/63 82/80/76
f 39/79/65 40/41/62 71/43/78
f 59/84/55 60/41/47 91/81/80
f 37/92/38 38/85/66 69/87/82
f 48/91/40 49/88/67 80/90/84
f 57/88/59 58/14/56 89/89/86
f 35/88/42 36/91/39 67/89/88
f 46/85/43 47/92/41 78/86/90
f 55/92/52 56/91/48 87/87/92
f 44/91/49 45/92/45 76/90/94
f 64/41/34 65/84/51 96/42/36
f 53/79/57 54/82/53 85/43/71
f 42/14/58 43/88/54 74/80/70
f 62/82/44 63/79/35 94/83/73
f 51/84/63 52/41/60 83/81/75
f 40/41/62 41/84/61 72/42/77
f 60/41/47 61/79/46 92/42/79
f 38/82/66 39/79/65 70/83/81
f 49/88/67 50/14/64 81/89/83
f 58/14/56 59/84/55 90/80/85
f 36/91/39 37/92/38 68/90/87
f 47/92/41 48/91/40 79/87/89
f 56/91/48 57/88/59 88/90/91
f 34/14/50 35/88/42 66/80/69
f 45/92/45 46/85/43 77/87/93
f 65/84/51 34/14/50 97/81/95
f 54/85/53 55/92/52 86/86/96
f 43/88/54 44/91/49 75/89/97
